<?xml version="1.0" encoding="UTF-8" standalone="no"?>
<!-- Created with Inkscape (http://www.inkscape.org/) -->

<svg
   width="48"
   height="48"
   viewBox="0 0 12.7 12.7"
   version="1.1"
   id="svg1"
   inkscape:version="1.3.2 (091e20e, 2023-11-25, custom)"
   sodipodi:docname="favicon.svg"
   xmlns:inkscape="http://www.inkscape.org/namespaces/inkscape"
   xmlns:sodipodi="http://sodipodi.sourceforge.net/DTD/sodipodi-0.dtd"
   xmlns="http://www.w3.org/2000/svg"
   xmlns:svg="http://www.w3.org/2000/svg">
  <sodipodi:namedview
     id="namedview1"
     pagecolor="#ffffff"
     bordercolor="#999999"
     borderopacity="1"
     inkscape:showpageshadow="2"
     inkscape:pageopacity="0"
     inkscape:pagecheckerboard="0"
     inkscape:deskcolor="#d1d1d1"
     inkscape:document-units="mm"
     showguides="true"
     inkscape:zoom="2.955623"
     inkscape:cx="-17.593583"
     inkscape:cy="31.972954"
     inkscape:window-width="2560"
     inkscape:window-height="1369"
     inkscape:window-x="-8"
     inkscape:window-y="282"
     inkscape:window-maximized="1"
     inkscape:current-layer="layer1">
    <sodipodi:guide
       position="-2.0813082,248.99562"
       orientation="0,-1"
       id="guide1"
       inkscape:locked="false" />
    <sodipodi:guide
       position="47.981988,301.74448"
       orientation="1,0"
       id="guide2"
       inkscape:locked="false" />
  </sodipodi:namedview>
  <defs
     id="defs1" />
  <g
     inkscape:label="Layer 1"
     inkscape:groupmode="layer"
     id="layer1">
    <path
       style="fill:#161b22;fill-opacity:1;stroke:#30363d;stroke-width:0.00774482;stroke-linecap:butt;stroke-linejoin:miter;stroke-miterlimit:14.3;stroke-dasharray:none;stroke-opacity:1;paint-order:normal"
       d="m 6.4287082,0.53422361 c -0.074389,0.03172 -0.086362,0.11731091 -0.079598,0.18890954 0,1.83208425 0,3.66416855 0,5.49625275 0.00111,0.082459 0.081248,0.1400118 0.1601627,0.1292413 1.842391,0 3.6847831,0 5.5271731,0 0.08245,-0.00111 0.140012,-0.081247 0.129241,-0.1601624 -0.0014,-1.4168088 0.0032,-2.8336372 -0.003,-4.2504332 0.0022,-0.1559833 -0.0082,-0.3136489 -0.05995,-0.4620968 -0.131914,-0.4264465 -0.489391,-0.77091976 -0.917863,-0.89331391 -0.145061,-0.0460929 -0.297512,-0.0578372 -0.448918,-0.0538927 -1.4191708,-0.007525 -2.8383751,-0.003123 -4.2575606,-0.004409 -0.016549,0.003302 -0.033096,0.006603 -0.049643,0.009904 z"
       id="path6" />
    <path
       style="fill:#161b22;fill-opacity:1;stroke:#30363d;stroke-width:0.00774482;stroke-linecap:butt;stroke-linejoin:miter;stroke-miterlimit:14.3;stroke-dasharray:none;stroke-opacity:1;paint-order:normal"
       d="m 0.607571,6.3628801 c -0.0744428,0.03174 -0.0863716,0.1174133 -0.0795239,0.1890452 0.002169,1.4803206 0.001977,2.9607792 0.00562,4.4410137 0.0541752,0.324511 0.21394244,0.635011 0.4681796,0.847728 0.2555299,0.222161 0.5959929,0.346666 0.9351701,0.330434 1.4261335,0.0075 2.8522958,0.0046 4.2784429,0.0062 0.082487,-0.0011 0.1400672,-0.08123 0.1293017,-0.160163 0,-1.844968 0,-3.6899361 0,-5.5349042 -0.00111,-0.082459 -0.081248,-0.1400117 -0.1601625,-0.1292412 -1.8424616,0 -3.6849235,0 -5.52738529,0 -0.0165478,0.0033 -0.0330954,0.0066 -0.0496431,0.0099 z"
       id="path7" />
    <path
       style="fill:#238636;fill-opacity:1;stroke:#30363d;stroke-width:0.0154897;stroke-linecap:butt;stroke-linejoin:miter;stroke-miterlimit:14.3;stroke-dasharray:none;stroke-opacity:1;paint-order:normal"
       d="M 3.9580579,0.52812392 C 3.210425,0.53580043 2.461958,0.51582442 1.7149066,0.55018773 1.4853303,0.55561921 1.2778185,0.67089634 1.0912317,0.79450107 0.75432444,1.0479423 0.52147802,1.4552774 0.54004807,1.8838722 c -0.0157474,1.4450845 -0.00456,2.8903554 -0.007999,4.3355137 0.009277,0.1384742 0.16381947,0.13782 0.2683868,0.1292413 1.80373973,0 3.60747943,0 5.41121903,0 0.1384743,-0.00927 0.13782,-0.1638195 0.1292413,-0.2683867 0,-1.8091552 0,-3.6183102 0,-5.42746528 -0.0093,-0.13862047 -0.1640361,-0.13779334 -0.2686583,-0.12895774 -0.7047268,0.001434 -1.4094536,0.002871 -2.11418,0.004306 z"
       id="path8" />
    <path
       style="fill:#d29922;fill-opacity:1;stroke:#30363d;stroke-width:0.0154897;stroke-linecap:butt;stroke-linejoin:miter;stroke-miterlimit:14.3;stroke-dasharray:none;stroke-opacity:1;paint-order:normal"
       d="M 6.4053359,6.3730259 C 6.2977586,6.4707813 6.363259,6.632657 6.3452448,6.760508 c 0,1.7628033 0,3.525607 0,5.28841 0.00929,0.138606 0.1640119,0.1378 0.2686279,0.128966 1.46094,-0.0043 2.9222779,-0.003 4.3829683,-0.01084 0.438175,-0.08411 0.841706,-0.366839 1.032422,-0.775744 0.08794,-0.188339 0.153751,-0.392759 0.132708,-0.603059 0.0028,-1.4352621 0.0056,-2.8705238 0.0084,-4.3057854 -0.0091,-0.1385986 -0.163756,-0.1381108 -0.268386,-0.1294828 -1.809155,0 -3.61831,0 -5.4274652,0 -0.02305,0.00668 -0.046099,0.013367 -0.06915,0.020051 z"
       id="path9" />
    <rect
       style="fill:none;stroke:#30363d;stroke-width:0.79375;stroke-linecap:butt;stroke-linejoin:bevel;stroke-miterlimit:14.3;stroke-dasharray:none;stroke-opacity:1;paint-order:normal"
       id="rect2"
       width="11.9007"
       height="11.90625"
       x="0.39687499"
       y="0.39687499"
       ry="1.4993262" />
    <path
       style="fill:none;stroke:#30363d;stroke-width:0.529167;stroke-linecap:butt;stroke-linejoin:round;stroke-miterlimit:14.3;stroke-dasharray:none;stroke-opacity:1"
       d="M 6.3472248,0.39687499 V 12.303127"
       id="path2" />
    <path
       style="fill:none;stroke:#30363d;stroke-width:0.529167;stroke-linecap:butt;stroke-linejoin:round;stroke-miterlimit:14.3;stroke-dasharray:none;stroke-opacity:1"
       d="M 0.396875,6.3500009 H 12.297574"
       id="path3" />
  </g>
</svg>
